# xmcd
#
# Track frame offsets:
#	150
#	12521
#	32004
#	44913
#	63912
#	80832
#	96222
#	108393
#	123287
#	136465
#	152196
#	169355
#	179314
#
# Disc length: 2626 seconds
#
# Revision: 1
# Processed by: cddbd v1.5.1PL0 Copyright (c) Steve Scherf et al.
# Submitted via: audiograbber 1.82.02
#
DISCID=b70a400d
DTITLE=The Alan Greene Band - Heard A Rumor
DYEAR=2003
DGENRE=Blues
TTITLE0=Fist Boogie
TTITLE1=Too Much For My Baby
TTITLE2=Heard A Rumor
TTITLE3=Go My Own Way
TTITLE4=Fast As You
TTITLE5="407"
TTITLE6=Likwid
TTITLE7=Baby's Mine
TTITLE8=She's The One
TTITLE9=Take Your Whiskey Home
TTITLE10=Hot Number
TTITLE11=She's Right
TTITLE12=Diving Duck Blues
EXTD=
EXTT0=
EXTT1=
EXTT2=
EXTT3=
EXTT4=
EXTT5=
EXTT6=
EXTT7=
EXTT8=
EXTT9=
EXTT10=
EXTT11=
EXTT12=
PLAYORDER=
